<?xml version="1.0" standalone="no"?>
<!DOCTYPE svg PUBLIC "-//W3C//DTD SVG 20010904//EN"
 "http://www.w3.org/TR/2001/REC-SVG-20010904/DTD/svg10.dtd">
<svg version="1.0" xmlns="http://www.w3.org/2000/svg"
 width="1140.000000pt" height="622.000000pt" viewBox="0 0 1140.000000 622.000000"
 preserveAspectRatio="xMidYMid meet">
<metadata>
Created by potrace 1.16, written by Peter Selinger 2001-2019
</metadata>
<g transform="translate(0.000000,622.000000) scale(0.100000,-0.100000)"
fill="#000000" stroke="none">
<path d="M1829 4229 c-255 -171 -471 -317 -479 -325 -12 -12 120 -14 955 -14
547 0 965 4 960 9 -23 20 -954 641 -962 641 -5 0 -218 -140 -474 -311z"/>
<path d="M1384 3731 c-67 -41 -64 -16 -64 -546 l0 -481 -72 -125 c-39 -68
-100 -172 -134 -232 -37 -65 -60 -115 -57 -126 12 -47 -20 -46 1247 -46 1124
0 1193 1 1219 18 15 9 27 25 27 34 0 9 -57 116 -127 237 l-128 221 -5 490 c-5
465 -6 491 -25 519 -39 58 -7 56 -967 56 -852 0 -884 -1 -914 -19z m398 -262
c57 -41 58 -50 58 -494 l0 -405 -130 0 -131 0 3 426 3 426 37 34 c32 28 45 34
84 34 31 0 56 -7 76 -21z m593 1 c60 -37 60 -35 63 -487 l3 -413 -136 0 -135
0 0 410 c0 352 2 415 15 441 34 64 126 88 190 49z m585 5 c64 -33 65 -37 68
-492 l3 -413 -136 0 -135 0 0 410 c0 454 0 452 63 490 38 24 97 26 137 5z"/>
<path d="M4490 3095 l0 -175 25 0 c22 0 25 4 25 38 0 37 22 72 46 72 5 0 24
-25 42 -55 26 -44 38 -55 59 -55 31 0 28 9 -28 91 l-41 61 41 42 c47 48 50 56
19 56 -14 0 -45 -22 -80 -57 l-58 -57 0 107 0 107 -25 0 -25 0 0 -175z"/>
<path d="M7623 3255 c-14 -10 -25 -31 -29 -56 -4 -23 -12 -39 -20 -39 -8 0
-14 -7 -14 -15 0 -8 7 -15 15 -15 12 0 15 -18 15 -105 l0 -105 25 0 25 0 0
105 0 105 35 0 c24 0 35 5 35 15 0 11 -11 15 -36 15 -34 0 -35 1 -32 33 3 28
7 33 38 37 22 3 35 10 35 20 0 21 -64 25 -92 5z"/>
<path d="M8451 3244 c-12 -15 -21 -40 -21 -55 0 -19 -5 -29 -15 -29 -8 0 -15
-7 -15 -15 0 -8 7 -15 15 -15 12 0 15 -18 15 -106 0 -104 0 -105 23 -102 21 3
22 8 25 105 l3 102 31 3 c46 4 49 28 3 28 -35 0 -36 1 -33 33 3 27 7 32 33 35
30 4 48 19 39 34 -3 4 -23 8 -44 8 -30 0 -43 -6 -59 -26z"/>
<path d="M9837 3263 c-4 -3 -7 -33 -7 -65 l0 -59 -30 16 c-62 32 -141 9 -166
-50 -50 -120 56 -227 166 -170 27 14 30 14 30 0 0 -9 9 -15 25 -15 l25 0 0
175 c0 163 -1 175 -18 175 -10 0 -22 -3 -25 -7z m-30 -155 c46 -43 24 -129
-40 -151 -22 -8 -66 8 -83 31 -20 26 -17 86 7 116 27 34 82 36 116 4z"/>
<path d="M10151 3244 c-12 -15 -21 -37 -21 -51 0 -13 -7 -26 -15 -29 -8 -4
-15 -12 -15 -20 0 -8 7 -14 15 -14 12 0 15 -18 15 -105 0 -98 1 -105 20 -105
18 0 20 8 22 103 l3 102 33 3 c42 4 44 32 2 32 -35 0 -47 19 -30 49 7 14 21
21 40 21 23 0 30 4 30 20 0 17 -7 20 -39 20 -31 0 -44 -6 -60 -26z"/>
<path d="M4811 3157 c-41 -21 -63 -59 -63 -112 0 -77 48 -125 125 -125 39 0
97 24 97 40 0 18 -19 20 -55 4 -53 -22 -115 4 -115 48 0 16 9 18 96 18 l97 0
-6 36 c-12 70 -51 104 -120 104 -18 0 -43 -6 -56 -13z"/>
<path d="M5098 3154 c-79 -42 -76 -179 4 -220 38 -20 122 -14 146 10 26 25 3
40 -35 21 -38 -19 -88 -10 -108 19 -29 41 -21 46 80 46 l95 0 0 36 c0 28 -8
44 -34 70 -28 28 -41 34 -77 34 -24 -1 -56 -7 -71 -16z"/>
<path d="M5360 3000 c0 -163 1 -170 20 -170 18 0 20 7 20 53 0 30 3 56 6 59 3
4 17 0 32 -8 75 -39 161 3 177 84 20 105 -83 185 -176 137 -26 -14 -30 -14
-35 0 -3 8 -15 15 -25 15 -18 0 -19 -10 -19 -170z m189 104 c12 -15 21 -41 21
-59 0 -50 -33 -85 -81 -85 -60 0 -95 51 -77 115 10 39 33 55 79 55 29 0 42 -6
58 -26z"/>
<path d="M5793 3158 c2 -7 26 -64 52 -126 45 -108 46 -113 31 -137 -11 -17
-26 -25 -46 -25 -32 0 -48 -16 -31 -33 19 -19 71 -12 96 14 13 13 46 80 73
149 69 175 69 172 41 168 -18 -2 -29 -20 -57 -96 -19 -51 -38 -89 -42 -85 -4
4 -22 47 -41 96 -29 77 -35 87 -57 87 -15 0 -22 -5 -19 -12z"/>
<path d="M6118 3154 c-78 -42 -76 -178 2 -219 60 -31 152 -8 180 45 7 12 12
41 12 65 0 24 -5 53 -12 65 -28 53 -123 76 -182 44z m123 -43 c19 -15 24 -29
24 -64 0 -64 -25 -89 -84 -85 -39 3 -48 7 -64 35 -22 38 -16 84 14 114 25 25
80 25 110 0z"/>
<path d="M6382 3071 c3 -89 6 -102 27 -125 28 -30 94 -36 127 -11 25 19 34 19
34 0 0 -8 9 -15 20 -15 19 0 20 7 20 125 0 118 -1 125 -20 125 -18 0 -20 -7
-20 -64 0 -104 -24 -146 -83 -146 -44 0 -57 28 -57 123 0 87 0 87 -26 87 l-26
0 4 -99z"/>
<path d="M6710 3045 l0 -125 25 0 c25 0 25 1 25 78 0 88 13 117 60 127 21 5
30 13 30 26 0 25 -30 25 -64 -2 l-26 -20 0 20 c0 16 -6 21 -25 21 l-25 0 0
-125z"/>
<path d="M6916 3149 c-51 -40 -26 -93 57 -123 48 -18 60 -39 35 -64 -16 -16
-47 -15 -82 3 -20 11 -33 12 -40 5 -19 -19 20 -43 78 -48 48 -4 57 -2 80 21
47 47 26 96 -53 122 -51 17 -65 32 -51 55 8 13 55 16 89 5 27 -8 38 15 16 32
-29 20 -98 16 -129 -8z"/>
<path d="M7178 3154 c-50 -27 -73 -105 -48 -168 13 -35 66 -66 113 -66 39 0
97 24 97 40 0 18 -20 20 -50 5 -48 -25 -120 3 -120 47 0 16 9 18 96 18 l97 0
-6 43 c-11 82 -102 123 -179 81z"/>
<path d="M7906 3149 c-50 -39 -30 -87 49 -119 45 -18 55 -27 55 -46 0 -32 -36
-40 -85 -19 -27 10 -42 12 -49 5 -19 -19 20 -43 76 -48 65 -5 108 22 108 67 0
35 -24 57 -83 77 -38 13 -47 20 -47 39 0 28 28 37 73 24 40 -11 61 6 33 27
-30 21 -98 18 -130 -7z"/>
<path d="M8160 3157 c-30 -15 -34 -44 -5 -39 98 17 125 11 125 -29 0 -15 -8
-19 -37 -19 -63 0 -109 -17 -121 -46 -17 -37 -15 -52 13 -79 27 -28 89 -34
128 -14 16 9 22 9 25 0 2 -6 12 -11 23 -11 17 0 19 8 19 90 0 99 -10 132 -47
149 -32 15 -92 14 -123 -2z"/>
<path d="M8628 3152 c-32 -19 -58 -68 -58 -107 0 -42 30 -94 63 -112 37 -19
121 -13 145 11 26 26 2 40 -36 20 -26 -13 -38 -13 -67 -4 -36 12 -61 42 -50
60 3 6 46 10 96 10 l89 0 0 30 c0 68 -45 110 -117 110 -21 0 -50 -8 -65 -18z"/>
<path d="M9048 3154 c-30 -16 -29 -51 1 -38 9 4 36 9 60 12 35 3 47 0 58 -14
24 -33 15 -41 -46 -46 -78 -5 -111 -27 -111 -73 0 -48 29 -75 81 -75 22 0 50
5 61 11 15 8 22 8 28 -1 4 -7 16 -10 26 -8 15 2 20 14 22 58 8 136 -22 190
-105 190 -26 -1 -60 -7 -75 -16z"/>
<path d="M9320 3045 c0 -118 1 -125 20 -125 18 0 20 7 20 64 0 101 25 145 82
146 47 0 68 -40 68 -131 0 -72 2 -79 20 -79 19 0 20 7 20 91 0 121 -21 158
-90 159 -19 0 -48 -7 -64 -15 -35 -18 -36 -18 -36 0 0 8 -9 15 -20 15 -19 0
-20 -7 -20 -125z"/>
<path d="M10310 3157 c-30 -15 -34 -44 -5 -39 98 17 125 11 125 -29 0 -15 -8
-19 -37 -19 -116 0 -170 -64 -108 -125 26 -27 89 -34 125 -15 13 7 21 7 25 0
3 -5 15 -10 26 -10 17 0 19 8 19 90 0 99 -10 132 -47 149 -32 15 -92 14 -123
-2z"/>
<path d="M10570 3044 c0 -124 0 -125 23 -122 20 3 22 9 27 83 6 92 10 102 56
121 19 8 34 19 34 24 0 21 -32 22 -60 2 -27 -21 -28 -21 -33 -2 -3 12 -14 20
-26 20 -20 0 -21 -5 -21 -126z"/>
</g>
</svg>
