<svg xmlns="http://www.w3.org/2000/svg" width="62.335" height="43.948" viewBox="0 0 62.335 43.948">
  <g id="layer1" transform="translate(5.583 -959.069)">
    <path id="rect7645-6" d="M41.584,964.862,16.978,977.07H66.19ZM20.259,979.511c-1.818,0-3.281,1.089-3.281,2.442v17.091l-5.741,7.325c-.487.621-.82.871-.82,1.221,0,1.221,2.072,1.221,3.281,1.221H69.471c1.165,0,3.281,0,3.281-1.221,0-.357-.284-.537-.82-1.221l-5.741-7.325V981.953c0-1.353-1.463-2.442-3.281-2.442Zm6.562,4.883a3.177,3.177,0,0,1,3.281,2.442v14.649H23.54V986.836c0-1.353,1.463-2.442,3.281-2.442Zm14.764,0c1.818,0,3.309,1.089,3.281,2.442v14.649H38.3V986.836c0-1.353,1.463-2.442,3.281-2.442Zm14.764,0c1.818,0,3.281,1.089,3.281,2.442v14.649H53.067V986.836C53.067,985.483,54.53,984.394,56.348,984.394Z" transform="translate(-16 -5.793)"/>
  </g>
</svg>
